<svg width="169" height="24" viewBox="0 0 169 24" fill="none" xmlns="http://www.w3.org/2000/svg">
<path fill-rule="evenodd" clip-rule="evenodd" d="M52.6908 5.5872e-05H52.7414C52.9227 5.5872e-05 53.0245 0.119297 53.0471 0.270005L53.0519 0.336265L50.7039 19.0835C50.2233 22.9832 47.8216 23.9563 44.8933 23.9985L44.6881 24C43.7153 24 43.2047 23.9772 42.8661 23.9481L42.0727 23.8535C41.9179 23.8263 41.7875 23.7661 41.7573 23.558L41.7507 23.4594V23.3311L41.9266 21.8378C41.9773 21.3997 42.1537 21.2579 42.5408 21.2579C42.902 21.2327 43.3929 21.231 43.9352 21.2053L44.4778 21.1701C45.455 21.088 46.0752 20.8571 46.3994 19.3795L46.44 19.1796L48.7394 0.365319C48.7615 0.188724 48.8227 0.0793456 48.986 0.0357777L49.0764 0.0194714L52.7414 5.5872e-05H52.6908ZM61.3267 4.78605C63.6754 4.78605 65.1476 5.30217 66.0245 6.176C66.9032 7.0525 67.1618 8.26184 67.1618 9.75474C67.1618 11.3775 66.8775 13.6177 66.3097 15.0838C65.4562 17.4005 63.7008 18.9726 59.5686 18.9726C57.2433 18.9726 55.7969 18.4826 54.919 17.6331C54.0161 16.7325 53.7318 15.4709 53.7318 13.9771C53.7318 12.3295 54.0667 9.88451 54.6866 8.39091C55.5916 6.2288 57.3736 4.78605 61.3267 4.78605ZM39.0987 4.78602C41.449 4.78602 42.9212 5.30116 43.7991 6.17695C44.677 7.05247 44.9357 8.26196 44.9357 9.75541C44.9357 11.3764 44.6507 13.6163 44.084 15.0838C43.2313 17.4005 41.4746 18.9712 37.343 18.9712C35.0179 18.9712 33.5706 18.4826 32.6927 17.6331C31.7898 16.7316 31.5041 15.47 31.5041 13.9772C31.5041 12.3294 31.8413 9.88364 32.4605 8.3899C33.3641 6.22877 35.1475 4.78602 39.0987 4.78602ZM90.6027 4.81217C92.6685 4.81217 94.2556 5.24923 94.7465 5.40371C94.8975 5.44701 94.9729 5.54328 94.9938 5.66397L95 5.73909V5.86717L94.4612 7.5668C94.4098 7.74712 94.2322 7.82297 94.052 7.82297C94.034 7.82297 94.0158 7.81198 93.9903 7.80466L93.8251 7.7804C93.3775 7.70504 92.067 7.43689 90.8421 7.43689C90.1966 7.43689 89.4126 7.51442 88.9224 7.90119C88.6282 8.14856 88.4595 8.47518 88.422 8.84567L88.4139 9.03427C88.4139 10.1144 89.6206 10.1662 90.8079 10.3991C91.8411 10.5532 92.8917 10.81 93.5631 11.4797C94.0796 11.9685 94.3896 12.7148 94.3896 13.8485C94.3896 15.1091 94.002 16.3964 93.0984 17.3489C91.9617 18.5339 90.1536 18.9711 88.1397 18.9711C85.9181 18.9711 83.9033 18.4307 83.4651 18.2241L83.3847 18.1812C83.3109 18.1418 83.2312 18.0817 83.2312 17.9158C83.2312 17.8641 83.2312 17.8242 83.2389 17.7727L83.2571 17.684L83.7758 16.0361C83.852 15.8054 83.9547 15.7275 84.1101 15.7275C84.1612 15.7275 84.1884 15.7275 84.2397 15.753L84.8435 15.9042C85.5787 16.0825 86.8146 16.3453 87.9578 16.3453C88.6814 16.3453 89.3533 16.2168 89.7921 15.8303C90.1798 15.5213 90.3347 15.0838 90.3347 14.6455C90.3347 14.1056 90.1539 13.8222 89.7924 13.6426C89.5339 13.5136 89.2101 13.437 88.8298 13.3661L87.6907 13.1591C86.8479 12.9945 85.892 12.7444 85.2223 12.0968C84.7314 11.5819 84.4233 10.8877 84.4233 9.80531C84.4233 8.6725 84.7354 7.46329 85.4572 6.58848C86.7497 5.04292 88.9506 4.81217 90.6027 4.81217ZM74.1526 0H74.2814C74.4845 0 74.6383 0.111862 74.6736 0.312379L74.6813 0.403675V0.47994L74.2477 3.75627L74.0534 5.26314L74.3232 5.18861C74.8408 5.05445 76.036 4.78613 77.3156 4.78613C79.0193 4.78613 80.2586 5.12164 81.0596 5.89407C81.8339 6.63955 82.1969 7.82361 82.1969 9.60006C82.1969 11.222 81.9379 13.0761 81.4742 14.6466C80.5939 17.5554 78.8127 18.9705 74.6803 18.9705C72.6644 18.9705 70.9093 18.6865 69.9281 18.3525C68.9204 18.018 68.6636 17.5794 68.6636 16.883C68.6636 16.6601 68.6865 16.4129 68.7247 16.1281L68.7923 15.671L70.6135 0.64169C70.6364 0.320984 70.761 0.114948 71.0428 0.0363333L71.1559 0.0128506L74.2814 0H74.1526ZM28.5063 0.0472118C30.3653 0.0472118 31.5284 0.383421 31.9146 0.486785C32.0962 0.538466 32.1469 0.669346 32.1469 0.823413C32.1469 0.841013 32.1469 0.872146 32.1395 0.906093L32.1218 0.957785L31.6317 2.71803C31.5871 2.91702 31.5232 3.03565 31.3757 3.06548L31.2946 3.07296H31.1912C30.8814 2.93328 30.0804 2.86665 29.3841 2.86665C28.2306 2.86665 27.7524 3.1218 27.5761 4.07508L27.5507 4.23146L27.3441 5.86656H30.6226C30.8278 5.86656 30.9328 5.98344 30.9558 6.15022L30.9607 6.22456V6.27652L30.7148 8.30551C30.6924 8.50717 30.5607 8.62745 30.3725 8.65437L30.2885 8.66016H27.0071L25.6232 18.3567C25.5775 18.6224 25.3833 18.7005 25.178 18.7146L25.1008 18.7171H22.0459C21.8666 18.7171 21.7108 18.7167 21.6725 18.524L21.6638 18.4424L21.7367 17.9244L21.7587 17.7394H21.7623L23.0301 8.71812L23.5731 4.14039C23.9087 1.41147 25.4835 0.0472118 28.5063 0.0472118ZM15.5592 4.89834C17.4199 4.89834 18.7752 5.15577 19.5755 5.92722C20.0007 6.37613 20.2643 6.99733 20.3053 7.83172L20.3109 8.09002C20.3109 8.37336 20.2947 8.64839 20.272 8.92002L20.1947 9.72959L19.1237 18.3473C19.1011 18.5498 18.9598 18.6811 18.7693 18.7108L18.6848 18.7172H15.5337C15.3304 18.7172 15.1708 18.6424 15.1341 18.4862L15.1261 18.4143V18.3632L16.1516 9.99596C16.1907 9.72526 16.2249 9.4544 16.2395 9.19505L16.2471 8.914C16.2471 8.50194 16.1873 8.19031 16.0069 7.98512C15.7483 7.67657 15.3534 7.54555 14.7327 7.54555C13.9651 7.54555 13.1285 7.67231 12.6025 7.76888L12.0727 7.87631L10.7822 18.3473C10.7584 18.5498 10.6174 18.6811 10.4092 18.7108L10.316 18.7172H7.16588C6.96308 18.7172 6.77251 18.6424 6.72803 18.4862L6.71831 18.4143V18.3632L8.14301 7.13769C8.27221 6.15979 8.97356 5.85012 10.5228 5.49058C11.8661 5.18175 13.9339 4.89834 15.5592 4.89834ZM2.46208 0.139736H6.21727C6.37066 0.139736 6.42335 0.197101 6.43528 0.326874L6.43812 0.449825L4.25574 18.3473C4.2333 18.5498 4.0966 18.6811 3.90629 18.7108L3.82162 18.7172H0.387599C0.206866 18.7172 0.0456604 18.6401 0.00818281 18.4833L0 18.4113L2.16122 0.45206C2.18305 0.271419 2.21796 0.167777 2.38303 0.144688L2.46208 0.139736H6.21727H2.46208ZM76.1005 7.48964C75.3386 7.48964 74.4097 7.67104 73.9736 7.76652L73.7249 7.82375L72.7172 16.0881L73.016 16.1469C73.3631 16.2078 73.9786 16.2941 74.6803 16.2941C76.5408 16.2941 77.3156 15.7791 77.8058 13.051C78.0123 11.9428 78.1678 10.7586 78.1678 9.62632C78.1678 8.88015 78.0639 8.36571 77.8322 8.03118C77.4959 7.59258 76.9526 7.48964 76.1005 7.48964ZM60.9893 7.46413C59.1736 7.46413 58.5794 8.25112 58.2388 9.94223L58.2005 10.1414C57.9665 11.4034 57.7614 12.8186 57.7614 14.1056C57.7614 14.9039 57.8641 15.4709 58.2508 15.8303C58.5873 16.1401 59.1038 16.294 59.9042 16.294C61.8425 16.294 62.3845 15.3928 62.7194 13.462C62.9516 12.2269 63.133 10.9135 63.133 9.67792C63.133 8.90493 63.0297 8.36577 62.6939 8.00413C62.358 7.64474 61.8425 7.46413 60.9893 7.46413ZM38.7626 7.46424C36.8771 7.46424 36.309 8.31406 35.9727 10.1415C35.7398 11.4034 35.5345 12.8178 35.5345 14.1057C35.5345 14.9039 35.6385 15.47 36.0248 15.8302C36.3596 16.1392 36.8771 16.294 37.6786 16.294C39.5455 16.294 40.1165 15.4568 40.4565 13.6657L40.4934 13.4628C40.7256 12.2262 40.9067 10.9135 40.9067 9.67789C40.9067 8.9049 40.802 8.36504 40.4685 8.00411C40.132 7.64373 39.6147 7.46424 38.7626 7.46424Z" fill="#167DB7"/>
<path fill-rule="evenodd" clip-rule="evenodd" d="M104.366 5.48272C104.617 4.04726 105.864 3 107.321 3H164.676C166.553 3 167.969 4.70357 167.626 6.54857L165.766 16.5486C165.502 17.9695 164.262 19 162.816 19H105.571C103.707 19 102.294 17.3185 102.616 15.4827L104.366 5.48272Z" fill="#FF6340"/>
<path d="M109.274 11.2081L109.761 8.97824H111.037C111.71 8.97824 112.107 9.3298 112.107 9.94252C112.107 10.6858 111.509 11.2081 110.62 11.2081H109.274ZM108.485 7.75279L106.944 15H108.475L109.038 12.3733H110.324L111.142 15H112.729L111.82 12.2076C112.985 11.856 113.648 10.8717 113.648 9.8019C113.648 8.60156 112.83 7.75279 111.383 7.75279H108.485ZM118.953 13.7042H115.673L116.065 11.9414H119.154L119.4 10.7411H116.311L116.683 9.04855H119.957L120.228 7.75279H115.422L113.88 15H118.687L118.953 13.7042ZM120.174 12.8655C120.204 14.2868 121.404 15.1205 123.137 15.1205C124.95 15.1205 126.05 14.101 126.05 12.75C126.05 11.7606 125.462 11.1931 124.207 10.8164L123.569 10.6205C122.841 10.4046 122.544 10.1384 122.544 9.72656C122.544 9.26451 122.986 8.86272 123.785 8.86272C124.594 8.86272 125.101 9.25949 125.126 9.83705H126.547C126.542 8.46094 125.437 7.63226 123.765 7.63226C122.148 7.63226 120.998 8.5413 120.998 9.90737C120.998 10.8968 121.61 11.5145 122.816 11.8862L123.438 12.082C124.227 12.3231 124.488 12.5592 124.488 12.9961C124.488 13.5536 123.936 13.885 123.162 13.885C122.313 13.885 121.716 13.4632 121.635 12.8655H120.174ZM131.892 13.7042H128.612L129.004 11.9414H132.093L132.339 10.7411H129.25L129.622 9.04855H132.896L133.167 7.75279H128.361L126.819 15H131.626L131.892 13.7042ZM137.106 9.22433H137.141L137.442 12.1021H135.564L137.106 9.22433ZM137.713 15H139.235L138.301 7.75279H136.513L132.415 15H134.037L134.981 13.2723H137.533L137.713 15ZM142.531 11.2081L143.018 8.97824H144.293C144.966 8.97824 145.363 9.3298 145.363 9.94252C145.363 10.6858 144.765 11.2081 143.877 11.2081H142.531ZM141.742 7.75279L140.2 15H141.732L142.294 12.3733H143.58L144.399 15H145.986L145.077 12.2076C146.242 11.856 146.905 10.8717 146.905 9.8019C146.905 8.60156 146.086 7.75279 144.64 7.75279H141.742ZM153.003 10.4096H154.489C154.499 10.3443 154.505 10.274 154.499 10.1685C154.454 8.65681 153.259 7.63226 151.597 7.63226C149.226 7.63226 147.624 9.43025 147.624 12.0318C147.624 13.9102 148.834 15.1205 150.718 15.1205C152.415 15.1205 153.751 14.091 154.078 12.524H152.586C152.31 13.3125 151.632 13.7946 150.798 13.7946C149.799 13.7946 149.186 13.0915 149.186 11.9464C149.186 10.1987 150.125 8.9481 151.481 8.9481C152.315 8.9481 152.948 9.47042 152.998 10.2439C153.003 10.3443 153.003 10.3795 153.003 10.4096ZM161.054 15L162.596 7.75279H161.044L160.417 10.6858H157.212L157.84 7.75279H156.288L154.746 15H156.298L156.951 11.9615H160.155L159.502 15H161.054Z" fill="white"/>
</svg>
